<svg width="48" height="48" viewBox="0 0 48 48" fill="none" xmlns="http://www.w3.org/2000/svg">
<path fill-rule="evenodd" clip-rule="evenodd" d="M41.4306 15.9402L47.4588 19.0373C47.7889 19.2074 47.9979 19.5447 48 19.9151C48.0019 20.2854 47.7988 20.6257 47.4706 20.8006L32.4707 28.7638C32.3242 28.8416 32.1621 28.8805 32 28.8805C31.8418 28.8805 31.6856 28.8436 31.541 28.7697L24 24.8957L16.4591 28.7697C16.3145 28.8436 16.1583 28.8805 16.0001 28.8805C15.838 28.8805 15.6759 28.8416 15.5293 28.7638L0.529418 20.8006C0.201294 20.6257 -0.00186081 20.2854 0.00010793 19.9151C0.00207667 19.5448 0.211044 19.2074 0.541136 19.0373L6.56923 15.9403L0.541043 12.8433C0.210951 12.6732 0.00198292 12.3358 1.41806e-05 11.9655C-0.00195456 11.5952 0.201201 11.2549 0.529324 11.08L15.5292 3.11676C15.8164 2.96314 16.166 2.96118 16.459 3.1109L24 6.98494L31.5409 3.1108C31.8339 2.96118 32.1796 2.96304 32.4706 3.11667L47.4706 11.0799C47.7987 11.2548 48.0018 11.5951 47.9999 11.9654C47.9979 12.3357 47.7889 12.6731 47.4588 12.8432L41.4306 15.9402ZM10.9308 15.9403L24 22.6548L37.0691 15.9402L24 9.22582L10.9308 15.9403Z" fill="#C6CDD7"/>
<path d="M22.5195 28.4323C22.2246 28.2525 21.8515 28.2399 21.5409 28.3983L17.3749 30.5389C16.5175 30.9802 15.4433 30.9725 14.5878 30.5194L9.47068 27.8025C9.16206 27.6391 8.78903 27.647 8.48631 27.8277C8.1836 28.0075 7.99994 28.3313 7.99994 28.6812V37.1028C7.99994 37.4703 8.2031 37.8086 8.52925 37.9816L21.5292 44.8833C21.6757 44.9611 21.8378 44.9999 21.9999 44.9999C22.1777 44.9999 22.3554 44.9523 22.5136 44.858C22.8163 44.6782 23 44.3545 23 44.0045V29.2829C23 28.9359 22.8184 28.6132 22.5195 28.4323Z" fill="#C6CDD7"/>
<path d="M38.5292 27.8025C38.8358 27.6391 39.2108 27.6469 39.5136 27.8277C39.8164 28.0076 39.9999 28.3313 39.9999 28.6813V37.1029C39.9999 37.4704 39.7968 37.8087 39.4706 37.9817L26.4708 44.8834C26.3242 44.9612 26.1621 45 26 45C25.8223 45 25.6446 44.9524 25.4864 44.8581C25.1836 44.6783 25 44.3546 25 44.0046V29.2829C25 28.9359 25.1816 28.6132 25.4805 28.4323C25.7754 28.2525 26.1484 28.2389 26.459 28.3983L30.625 30.5389C31.4804 30.9811 32.5566 30.9734 33.4121 30.5194L38.5292 27.8025Z" fill="#C6CDD7"/>
</svg>
