<svg width="24" height="24" viewBox="0 0 24 24" fill="none" xmlns="http://www.w3.org/2000/svg">
<path fill-rule="evenodd" clip-rule="evenodd" d="M12.5702 11.4516H15.4435C15.7509 11.4516 16 11.7007 16 12.0081C16 12.3154 15.7509 12.5645 15.4435 12.5645H12.5702V15.4214C12.5702 15.741 12.3112 16 11.9917 16C11.6721 16 11.4131 15.741 11.4131 15.4214V12.5645H8.55645C8.24913 12.5645 8 12.3154 8 12.0081C8 11.7007 8.24913 11.4516 8.55645 11.4516H11.4131V8.57856C11.4131 8.25903 11.6721 8 11.9917 8C12.3112 8 12.5702 8.25903 12.5702 8.57856V11.4516Z" fill="#1E1E3C"/>
</svg>
